HIERARCHY
ROOT Hips
{
 OFFSET 0.000000 0.000000 0.000000
 CHANNELS 6 Xposition Yposition Zposition Yrotation Xrotation Zrotation
 JOINT Chest
 {
  OFFSET 0.000000 13.173100 -0.061900
  CHANNELS 3 Yrotation Xrotation Zrotation
  JOINT Chest2
  {
   OFFSET 0.000000 8.040800 0.126200
   CHANNELS 3 Yrotation Xrotation Zrotation
   JOINT Chest3
   {
    OFFSET 0.000000 7.994400 0.000000
    CHANNELS 3 Yrotation Xrotation Zrotation
    JOINT Chest4
    {
     OFFSET 0.000000 7.986200 0.000000
     CHANNELS 3 Yrotation Xrotation Zrotation
     JOINT Neck
     {
      OFFSET 0.000000 12.259400 0.000000
      CHANNELS 3 Yrotation Xrotation Zrotation
      JOINT Head
      {
       OFFSET 0.000000 7.518700 0.267100
       CHANNELS 3 Yrotation Xrotation Zrotation
       End Site
       {
        OFFSET 0.000000 13.617700 0.141000
       }
      }
     }
     JOINT RightCollar
     {
      OFFSET -2.983800 8.314300 0.000000
      CHANNELS 3 Yrotation Xrotation Zrotation
      JOINT RightShoulder
      {
       OFFSET -16.133400 0.000000 0.000000
       CHANNELS 3 Yrotation Xrotation Zrotation
       JOINT RightElbow
       {
        OFFSET 0.000000 -29.822100 0.000000
        CHANNELS 3 Yrotation Xrotation Zrotation
        JOINT RightWrist
        {
         OFFSET 0.000000 -24.437700 0.010900
         CHANNELS 3 Yrotation Xrotation Zrotation
         End Site
         {
          OFFSET 0.000000 -18.312300 0.000000
         }
        }
       }
      }
     }
     JOINT LeftCollar
     {
      OFFSET 2.983800 8.314300 0.000000
      CHANNELS 3 Yrotation Xrotation Zrotation
      JOINT LeftShoulder
      {
       OFFSET 16.133400 0.000000 0.000000
       CHANNELS 3 Yrotation Xrotation Zrotation
       JOINT LeftElbow
       {
        OFFSET 0.000000 -29.822100 0.000000
        CHANNELS 3 Yrotation Xrotation Zrotation
        JOINT LeftWrist
        {
         OFFSET 0.000000 -24.437700 0.010900
         CHANNELS 3 Yrotation Xrotation Zrotation
         End Site
         {
          OFFSET 0.000000 -18.312300 0.000000
         }
        }
       }
      }
     }
    }
   }
  }
 }
 JOINT RightHip
 {
  OFFSET -11.206700 0.306200 0.030900
  CHANNELS 3 Yrotation Xrotation Zrotation
  JOINT RightKnee
  {
   OFFSET 0.000000 -57.334900 0.009400
   CHANNELS 3 Yrotation Xrotation Zrotation
   JOINT RightAnkle
   {
    OFFSET 0.000000 -43.376200 0.036600
    CHANNELS 3 Yrotation Xrotation Zrotation
    JOINT RightToe
    {
     OFFSET 0.000000 -10.035500 18.363100
     CHANNELS 3 Yrotation Xrotation Zrotation
     End Site
     {
      OFFSET 0.000000 -1.618500 7.239000
     }
    }
   }
  }
 }
 JOINT LeftHip
 {
  OFFSET 11.206700 0.306200 0.030900
  CHANNELS 3 Yrotation Xrotation Zrotation
  JOINT LeftKnee
  {
   OFFSET 0.000000 -57.334900 0.009400
   CHANNELS 3 Yrotation Xrotation Zrotation
   JOINT LeftAnkle
   {
    OFFSET 0.000000 -43.376200 0.036600
    CHANNELS 3 Yrotation Xrotation Zrotation
    JOINT LeftToe
    {
     OFFSET 0.000000 -10.035500 18.363100
     CHANNELS 3 Yrotation Xrotation Zrotation
     End Site
     {
      OFFSET 0.000000 -1.618500 7.239000
     }
    }
   }
  }
 }
}
MOTION
Frames: 11
Frame Time: 0.008333
0.000000 110.232800 0.000000 0.000000 -5.767877 0.000000 0.000000 11.653817 0.000000 0.000000 -5.885947 0.000000 0.000000 -0.000000 0.000000 0.000000 -0.000000 0.000000 0.000000 12.528835 0.000000 0.000000 0.711642 0.000000 0.000000 -0.000000 0.000000 0.000000 0.000000 -90.000000 0.000000 -2.309062 0.000000 0.000000 2.309062 0.000000 0.000000 -0.000000 0.000000 0.000000 -0.000000 90.000000 0.000000 -2.309062 0.000000 0.000000 2.309062 0.000000 0.000000 8.520406 0.000000 0.000000 1.905762 0.000000 -0.000000 -4.658285 0.000000 0.000000 -0.000000 0.000000 0.000000 8.520406 0.000000 0.000000 1.905762 0.000000 -0.000000 -4.658285 0.000000 0.000000 -0.000000 0.000000
-98.225923 64.465609 86.486466 174.421876 -36.500207 -2.744518 2.317337 21.311138 2.516862 0.273691 2.915957 0.422721 0.438031 4.692100 0.697734 2.100425 18.168007 2.981758 -4.022671 15.428695 -1.480778 -6.824402 -7.040002 -1.261091 -3.300861 2.324039 -2.601628 -3.798466 -10.621384 0.282523 -95.808572 -50.324565 117.842875 -9.690572 0.681628 25.278788 -5.095772 2.349589 -0.197647 11.895827 -11.192108 2.540599 75.274109 -28.264595 -117.826785 20.485655 -6.027761 -10.817048 -4.304217 -44.196381 3.848370 -154.710502 87.777930 -149.690822 -0.876711 -10.790107 -3.327796 0.057692 -0.212035 0.044563 -4.326523 -41.189650 4.424529 76.141087 83.117429 65.702661 -5.755601 -13.218603 7.839108 0.348413 1.156429 0.183027
-98.231056 64.465399 86.483564 174.424331 -36.501673 -2.737627 2.333394 21.354828 2.512249 0.267371 2.898239 0.425214 0.431824 4.685209 0.699373 2.117246 18.193147 2.986482 -3.987852 15.414211 -1.451759 -6.767336 -7.074389 -1.224333 -3.303377 2.360458 -2.597609 -3.786517 -10.591025 0.310218 -95.404442 -50.119037 117.456363 -9.953027 0.491782 25.091026 -5.096867 2.389930 -0.180205 11.902574 -11.166016 2.519946 75.259613 -28.221994 -117.789155 20.510845 -6.036553 -10.724933 -4.277075 -44.196748 3.833232 -154.829044 87.776997 -149.813470 -0.887431 -10.793596 -3.314482 0.054006 -0.212864 0.045852 -4.314751 -41.189094 4.385355 76.170533 83.094566 65.751884 -5.738040 -13.216624 7.829798 0.325444 1.163607 0.174567
-98.234774 64.464611 86.481267 174.425580 -36.499134 -2.740143 2.341923 21.366020 2.515762 0.271835 2.905269 0.425013 0.449407 4.721969 0.701335 2.100394 18.154934 2.989587 -3.891825 15.441803 -1.405572 -6.769222 -7.127642 -1.190209 -3.295263 2.416366 -2.592940 -3.786661 -10.552360 0.338611 -95.124255 -49.980110 117.183954 -10.198976 0.300402 24.882757 -5.103176 2.390347 -0.175187 11.926277 -11.084399 2.525351 75.263707 -28.207555 -117.778099 20.518027 -6.060991 -10.590725 -4.247682 -44.199015 3.825207 -154.680728 87.773576 -149.656445 -0.894608 -10.797814 -3.307106 0.054782 -0.210651 0.052146 -4.313716 -41.193168 4.373379 76.212448 83.082541 65.805517 -5.735405 -13.212076 7.820720 0.324324 1.168560 0.175007
-98.239339 64.463216 86.479380 174.426423 -36.492617 -2.742122 2.344203 21.363962 2.517524 0.278699 2.913983 0.423466 0.453884 4.731936 0.703271 2.099123 18.149974 2.992879 -3.851196 15.440696 -1.381397 -6.723410 -7.151249 -1.153206 -3.284841 2.469702 -2.585941 -3.794199 -10.507794 0.363896 -94.973335 -49.909990 117.023018 -10.405846 0.104478 24.661289 -5.099358 2.446040 -0.167515 11.954473 -11.063144 2.519363 75.278455 -28.217499 -117.787623 20.500109 -6.091156 -10.453192 -4.238148 -44.204908 3.826236 -154.600903 87.773038 -149.578003 -0.897344 -10.801027 -3.302503 0.055223 -0.209886 0.052328 -4.310898 -41.200874 4.362928 76.252048 83.071536 65.855029 -5.739783 -13.209735 7.817858 0.321041 1.175707 0.173401
-98.245160 64.461679 86.477442 174.430350 -36.484836 -2.742897 2.352489 21.369249 2.515469 0.271031 2.904539 0.427137 0.460634 4.755352 0.706854 2.117157 18.146505 2.994467 -3.829554 15.436487 -1.351790 -6.677992 -7.180380 -1.123650 -3.291277 2.512726 -2.571089 -3.805265 -10.460221 0.382684 -94.931248 -49.894760 116.953480 -10.563228 -0.092365 24.449946 -5.108468 2.482109 -0.159652 11.986679 -11.040105 2.522797 75.301714 -28.247070 -117.808550 20.458055 -6.115897 -10.359356 -4.235552 -44.212825 3.827426 -154.622605 87.770372 -149.608448 -0.902146 -10.802471 -3.292986 0.055319 -0.211616 0.046153 -4.308054 -41.207775 4.349815 76.278227 83.059519 65.888480 -5.745589 -13.214489 7.810226 0.326278 1.188365 0.179171
-98.251489 64.460207 86.475567 174.434662 -36.476444 -2.743306 2.353867 21.378930 2.514315 0.272317 2.907949 0.428429 0.462489 4.768911 0.712420 2.123513 18.145867 2.997235 -3.803246 15.426528 -1.330462 -6.635393 -7.221665 -1.102752 -3.290932 2.541717 -2.561498 -3.816307 -10.413647 0.397666 -94.999267 -49.905674 117.023329 -10.670314 -0.266459 24.212800 -5.077288 2.553531 -0.158574 11.991928 -11.071937 2.517164 75.339176 -28.295732 -117.833693 20.401228 -6.122871 -10.333350 -4.234183 -44.221275 3.825204 -154.677932 87.770543 -149.667067 -0.906787 -10.803606 -3.294454 0.055097 -0.213129 0.047753 -4.308207 -41.215399 4.339521 76.300628 83.050824 65.913825 -5.751075 -13.219578 7.805422 0.339813 1.203923 0.183515
-98.257017 64.459009 86.474008 174.438859 -36.467602 -2.748184 2.356083 21.393394 2.521100 0.273496 2.913214 0.430293 0.463641 4.769533 0.712971 2.132023 18.165419 3.009286 -3.782394 15.404659 -1.317484 -6.596679 -7.271152 -1.087406 -3.294333 2.551354 -2.558936 -3.827352 -10.368007 0.414815 -95.066906 -49.961410 117.021657 -10.738773 -0.445352 24.094854 -5.067768 2.552791 -0.159985 12.012252 -11.054661 2.515145 75.390097 -28.366835 -117.859188 20.342098 -6.106353 -10.366511 -4.236188 -44.229171 3.833666 -154.571956 87.768098 -149.570471 -0.912483 -10.804294 -3.283877 0.055280 -0.213430 0.047999 -4.314563 -41.223876 4.339166 76.334172 83.045456 65.947858 -5.757938 -13.225316 7.799997 0.347403 1.211149 0.188832
-98.261641 64.458177 86.472805 174.452401 -36.458365 -2.763239 2.357822 21.410200 2.534000 0.281741 2.943634 0.438277 0.457343 4.755244 0.713414 2.145678 18.235183 3.036803 -3.772415 15.321475 -1.318263 -6.559771 -7.321406 -1.075618 -3.308401 2.490035 -2.570009 -3.836175 -10.370116 0.420034 -95.136765 -50.030162 116.986352 -10.790991 -0.582281 24.028371 -5.064306 2.484754 -0.170343 12.024847 -11.041708 2.507910 75.449644 -28.456717 -117.885151 20.286769 -6.066676 -10.433936 -4.254297 -44.234797 3.847034 -154.464197 87.766680 -149.466403 -0.915785 -10.803451 -3.287086 0.058112 -0.215444 0.053594 -4.333645 -41.232633 4.344850 76.369516 83.039803 65.985837 -5.763993 -13.236228 7.789116 0.346909 1.221526 0.196114
-98.265750 64.458399 86.471137 174.472158 -36.453516 -2.784357 2.366806 21.451474 2.562523 0.275892 2.937971 0.437867 0.458195 4.767192 0.717554 2.144534 18.239101 3.043859 -3.750393 15.297658 -1.310289 -6.522135 -7.365926 -1.067791 -3.319562 2.480978 -2.573416 -3.870682 -10.299554 0.460892 -95.291426 -50.109307 117.111413 -10.809808 -0.676853 23.994672 -5.064961 2.449176 -0.178118 12.041356 -11.012529 2.510484 75.516090 -28.551657 -117.912494 20.231935 -6.002825 -10.517196 -4.274534 -44.233463 3.859386 -154.245026 87.767169 -149.249175 -0.911009 -10.804819 -3.283275 0.055808 -0.216350 0.048683 -4.356196 -41.235722 4.356948 76.376181 83.046009 65.995229 -5.778071 -13.249834 7.785110 0.360015 1.233772 0.202613
-98.269863 64.458877 86.469965 174.478192 -36.448726 -2.797590 2.368584 21.452733 2.575576 0.279471 2.955542 0.442665 0.462034 4.782374 0.721943 2.148757 18.251985 3.054721 -3.748169 15.261652 -1.313587 -6.460795 -7.385132 -1.060526 -3.334765 2.474182 -2.579753 -3.930617 -10.234468 0.513680 -95.415564 -50.178047 117.230815 -10.810545 -0.728959 24.018752 -5.065718 2.417269 -0.186421 12.051502 -10.987512 2.515297 75.587509 -28.643220 -117.939222 20.175057 -5.918180 -10.603677 -4.277371 -44.234198 3.869901 -153.932132 87.763265 -148.938029 -0.903467 -10.804659 -3.274437 0.052960 -0.215991 0.047296 -4.365172 -41.240891 4.364118 76.396233 83.051171 66.017819 -5.775470 -13.257339 7.786331 0.360472 1.237152 0.203034
